<svg xmlns="http://www.w3.org/2000/svg" xmlns:xlink="http://www.w3.org/1999/xlink" width="752.316" height="611.5" viewBox="0 0 752.316 611.5"><defs><style>.a{fill:#6c63ff;}.b{fill:#2f2e41;}.c{fill:#fff;}.d{fill:#5059e2;}.e{fill:#3f3d56;}.f{filter:url(#bm);}.g{filter:url(#bk);}.h{filter:url(#bi);}.i{filter:url(#bg);}.j{filter:url(#be);}.k{filter:url(#bc);}.l{filter:url(#ba);}.m{filter:url(#ay);}.n{filter:url(#aw);}.o{filter:url(#au);}.p{filter:url(#as);}.q{filter:url(#aq);}.r{filter:url(#ao);}.s{filter:url(#am);}.t{filter:url(#ak);}.u{filter:url(#ai);}.v{filter:url(#ag);}.w{filter:url(#ae);}.x{filter:url(#ac);}.y{filter:url(#aa);}.z{filter:url(#y);}.aa{filter:url(#w);}.ab{filter:url(#u);}.ac{filter:url(#s);}.ad{filter:url(#q);}.ae{filter:url(#o);}.af{filter:url(#m);}.ag{filter:url(#k);}.ah{filter:url(#i);}.ai{filter:url(#g);}.aj{filter:url(#e);}.ak{filter:url(#c);}.al{filter:url(#a);}</style><filter id="a" x="118.125" y="310.308" width="143.507" height="102.843" filterUnits="userSpaceOnUse"><feOffset dx="10" dy="10" input="SourceAlpha"/><feGaussianBlur stdDeviation="5" result="b"/><feFlood flood-color="#5059e2" flood-opacity="0.302"/><feComposite operator="in" in2="b"/><feComposite in="SourceGraphic"/></filter><filter id="c" x="118.172" y="336.05" width="87.827" height="76.414" filterUnits="userSpaceOnUse"><feOffset dx="10" dy="10" input="SourceAlpha"/><feGaussianBlur stdDeviation="5" result="d"/><feFlood flood-color="#5059e2" flood-opacity="0.302"/><feComposite operator="in" in2="d"/><feComposite in="SourceGraphic"/></filter><filter id="e" x="256.855" y="0" width="337.109" height="310.935" filterUnits="userSpaceOnUse"><feOffset dx="10" dy="10" input="SourceAlpha"/><feGaussianBlur stdDeviation="5" result="f"/><feFlood flood-color="#5059e2" flood-opacity="0.302"/><feComposite operator="in" in2="f"/><feComposite in="SourceGraphic"/></filter><filter id="g" x="293.062" y="31.845" width="91.073" height="91.073" filterUnits="userSpaceOnUse"><feOffset dx="10" dy="10" input="SourceAlpha"/><feGaussianBlur stdDeviation="5" result="h"/><feFlood flood-color="#5059e2" flood-opacity="0.302"/><feComposite operator="in" in2="h"/><feComposite in="SourceGraphic"/></filter><filter id="i" x="381.618" y="46.023" width="94.563" height="37.852" filterUnits="userSpaceOnUse"><feOffset dx="10" dy="10" input="SourceAlpha"/><feGaussianBlur stdDeviation="5" result="j"/><feFlood flood-color="#5059e2" flood-opacity="0.302"/><feComposite operator="in" in2="j"/><feComposite in="SourceGraphic"/></filter><filter id="k" x="381.617" y="70.888" width="176.139" height="37.852" filterUnits="userSpaceOnUse"><feOffset dx="10" dy="10" input="SourceAlpha"/><feGaussianBlur stdDeviation="5" result="l"/><feFlood flood-color="#5059e2" flood-opacity="0.302"/><feComposite operator="in" in2="l"/><feComposite in="SourceGraphic"/></filter><filter id="m" x="304.186" y="123.454" width="242.446" height="37.852" filterUnits="userSpaceOnUse"><feOffset dx="10" dy="10" input="SourceAlpha"/><feGaussianBlur stdDeviation="5" result="n"/><feFlood flood-color="#5059e2" flood-opacity="0.302"/><feComposite operator="in" in2="n"/><feComposite in="SourceGraphic"/></filter><filter id="o" x="304.186" y="147.883" width="242.446" height="37.852" filterUnits="userSpaceOnUse"><feOffset dx="10" dy="10" input="SourceAlpha"/><feGaussianBlur stdDeviation="5" result="p"/><feFlood flood-color="#5059e2" flood-opacity="0.302"/><feComposite operator="in" in2="p"/><feComposite in="SourceGraphic"/></filter><filter id="q" x="304.186" y="172.312" width="242.446" height="37.852" filterUnits="userSpaceOnUse"><feOffset dx="10" dy="10" input="SourceAlpha"/><feGaussianBlur stdDeviation="5" result="r"/><feFlood flood-color="#5059e2" flood-opacity="0.302"/><feComposite operator="in" in2="r"/><feComposite in="SourceGraphic"/></filter><filter id="s" x="304.186" y="196.742" width="242.446" height="37.852" filterUnits="userSpaceOnUse"><feOffset dx="10" dy="10" input="SourceAlpha"/><feGaussianBlur stdDeviation="5" result="t"/><feFlood flood-color="#5059e2" flood-opacity="0.302"/><feComposite operator="in" in2="t"/><feComposite in="SourceGraphic"/></filter><filter id="u" x="392.087" y="60.2" width="337.109" height="250.734" filterUnits="userSpaceOnUse"><feOffset dx="10" dy="10" input="SourceAlpha"/><feGaussianBlur stdDeviation="5" result="v"/><feFlood flood-color="#5059e2" flood-opacity="0.302"/><feComposite operator="in" in2="v"/><feComposite in="SourceGraphic"/></filter><filter id="w" x="428.295" y="92.045" width="91.073" height="91.073" filterUnits="userSpaceOnUse"><feOffset dx="10" dy="10" input="SourceAlpha"/><feGaussianBlur stdDeviation="5" result="x"/><feFlood flood-color="#5059e2" flood-opacity="0.302"/><feComposite operator="in" in2="x"/><feComposite in="SourceGraphic"/></filter><filter id="y" x="516.85" y="106.223" width="94.563" height="37.852" filterUnits="userSpaceOnUse"><feOffset dx="10" dy="10" input="SourceAlpha"/><feGaussianBlur stdDeviation="5" result="z"/><feFlood flood-color="#5059e2" flood-opacity="0.302"/><feComposite operator="in" in2="z"/><feComposite in="SourceGraphic"/></filter><filter id="aa" x="516.85" y="131.088" width="176.139" height="37.852" filterUnits="userSpaceOnUse"><feOffset dx="10" dy="10" input="SourceAlpha"/><feGaussianBlur stdDeviation="5" result="ab"/><feFlood flood-color="#5059e2" flood-opacity="0.302"/><feComposite operator="in" in2="ab"/><feComposite in="SourceGraphic"/></filter><filter id="ac" x="439.419" y="183.655" width="242.446" height="37.852" filterUnits="userSpaceOnUse"><feOffset dx="10" dy="10" input="SourceAlpha"/><feGaussianBlur stdDeviation="5" result="ad"/><feFlood flood-color="#5059e2" flood-opacity="0.302"/><feComposite operator="in" in2="ad"/><feComposite in="SourceGraphic"/></filter><filter id="ae" x="439.419" y="208.084" width="242.446" height="37.852" filterUnits="userSpaceOnUse"><feOffset dx="10" dy="10" input="SourceAlpha"/><feGaussianBlur stdDeviation="5" result="af"/><feFlood flood-color="#5059e2" flood-opacity="0.302"/><feComposite operator="in" in2="af"/><feComposite in="SourceGraphic"/></filter><filter id="ag" x="439.419" y="232.513" width="242.446" height="37.852" filterUnits="userSpaceOnUse"><feOffset dx="10" dy="10" input="SourceAlpha"/><feGaussianBlur stdDeviation="5" result="ah"/><feFlood flood-color="#5059e2" flood-opacity="0.302"/><feComposite operator="in" in2="ah"/><feComposite in="SourceGraphic"/></filter><filter id="ai" x="439.419" y="256.942" width="242.446" height="37.852" filterUnits="userSpaceOnUse"><feOffset dx="10" dy="10" input="SourceAlpha"/><feGaussianBlur stdDeviation="5" result="aj"/><feFlood flood-color="#5059e2" flood-opacity="0.302"/><feComposite operator="in" in2="aj"/><feComposite in="SourceGraphic"/></filter><filter id="ak" x="225.009" y="212.446" width="527.307" height="399.054" filterUnits="userSpaceOnUse"><feOffset dx="10" dy="10" input="SourceAlpha"/><feGaussianBlur stdDeviation="5" result="al"/><feFlood flood-color="#5059e2" flood-opacity="0.302"/><feComposite operator="in" in2="al"/><feComposite in="SourceGraphic"/></filter><filter id="am" x="43.392" y="237.794" width="123.388" height="123.388" filterUnits="userSpaceOnUse"><feOffset dx="10" dy="10" input="SourceAlpha"/><feGaussianBlur stdDeviation="5" result="an"/><feFlood flood-color="#5059e2" flood-opacity="0.302"/><feComposite operator="in" in2="an"/><feComposite in="SourceGraphic"/></filter><filter id="ao" x="70.724" y="461.452" width="55.091" height="149.54" filterUnits="userSpaceOnUse"><feOffset dx="10" dy="10" input="SourceAlpha"/><feGaussianBlur stdDeviation="5" result="ap"/><feFlood flood-color="#5059e2" flood-opacity="0.302"/><feComposite operator="in" in2="ap"/><feComposite in="SourceGraphic"/></filter><filter id="aq" x="98.643" y="461.452" width="55.091" height="149.54" filterUnits="userSpaceOnUse"><feOffset dx="10" dy="10" input="SourceAlpha"/><feGaussianBlur stdDeviation="5" result="ar"/><feFlood flood-color="#5059e2" flood-opacity="0.302"/><feComposite operator="in" in2="ar"/><feComposite in="SourceGraphic"/></filter><filter id="as" x="26.538" y="340.846" width="167.85" height="183.296" filterUnits="userSpaceOnUse"><feOffset dx="10" dy="10" input="SourceAlpha"/><feGaussianBlur stdDeviation="5" result="at"/><feFlood flood-color="#5059e2" flood-opacity="0.302"/><feComposite operator="in" in2="at"/><feComposite in="SourceGraphic"/></filter><filter id="au" x="89.056" y="272.089" width="42.091" height="59.705" filterUnits="userSpaceOnUse"><feOffset dx="10" dy="10" input="SourceAlpha"/><feGaussianBlur stdDeviation="5" result="av"/><feFlood flood-color="#5059e2" flood-opacity="0.302"/><feComposite operator="in" in2="av"/><feComposite in="SourceGraphic"/></filter><filter id="aw" x="104.591" y="273.81" width="39.398" height="31.745" filterUnits="userSpaceOnUse"><feOffset dx="10" dy="10" input="SourceAlpha"/><feGaussianBlur stdDeviation="5" result="ax"/><feFlood flood-color="#5059e2" flood-opacity="0.302"/><feComposite operator="in" in2="ax"/><feComposite in="SourceGraphic"/></filter><filter id="ay" x="74.927" y="273.81" width="39.398" height="31.745" filterUnits="userSpaceOnUse"><feOffset dx="10" dy="10" input="SourceAlpha"/><feGaussianBlur stdDeviation="5" result="az"/><feFlood flood-color="#5059e2" flood-opacity="0.302"/><feComposite operator="in" in2="az"/><feComposite in="SourceGraphic"/></filter><filter id="ba" x="339.303" y="353.786" width="312.68" height="197.514" filterUnits="userSpaceOnUse"><feOffset dx="10" dy="10" input="SourceAlpha"/><feGaussianBlur stdDeviation="5" result="bb"/><feFlood flood-color="#5059e2" flood-opacity="0.302"/><feComposite operator="in" in2="bb"/><feComposite in="SourceGraphic"/></filter><filter id="bc" x="363.296" y="375.598" width="91.073" height="91.073" filterUnits="userSpaceOnUse"><feOffset dx="10" dy="10" input="SourceAlpha"/><feGaussianBlur stdDeviation="5" result="bd"/><feFlood flood-color="#5059e2" flood-opacity="0.302"/><feComposite operator="in" in2="bd"/><feComposite in="SourceGraphic"/></filter><filter id="be" x="451.851" y="389.775" width="94.563" height="37.852" filterUnits="userSpaceOnUse"><feOffset dx="10" dy="10" input="SourceAlpha"/><feGaussianBlur stdDeviation="5" result="bf"/><feFlood flood-color="#5059e2" flood-opacity="0.302"/><feComposite operator="in" in2="bf"/><feComposite in="SourceGraphic"/></filter><filter id="bg" x="451.851" y="414.64" width="176.139" height="37.852" filterUnits="userSpaceOnUse"><feOffset dx="10" dy="10" input="SourceAlpha"/><feGaussianBlur stdDeviation="5" result="bh"/><feFlood flood-color="#5059e2" flood-opacity="0.302"/><feComposite operator="in" in2="bh"/><feComposite in="SourceGraphic"/></filter><filter id="bi" x="374.42" y="467.207" width="242.446" height="37.852" filterUnits="userSpaceOnUse"><feOffset dx="10" dy="10" input="SourceAlpha"/><feGaussianBlur stdDeviation="5" result="bj"/><feFlood flood-color="#5059e2" flood-opacity="0.302"/><feComposite operator="in" in2="bj"/><feComposite in="SourceGraphic"/></filter><filter id="bk" x="374.42" y="491.636" width="242.446" height="37.852" filterUnits="userSpaceOnUse"><feOffset dx="10" dy="10" input="SourceAlpha"/><feGaussianBlur stdDeviation="5" result="bl"/><feFlood flood-color="#5059e2" flood-opacity="0.302"/><feComposite operator="in" in2="bl"/><feComposite in="SourceGraphic"/></filter><filter id="bm" x="0" y="203.005" width="161.698" height="181.693" filterUnits="userSpaceOnUse"><feOffset dx="10" dy="10" input="SourceAlpha"/><feGaussianBlur stdDeviation="5" result="bn"/><feFlood flood-color="#5059e2" flood-opacity="0.302"/><feComposite operator="in" in2="bn"/><feComposite in="SourceGraphic"/></filter></defs><g transform="translate(5 5)"><g class="al" transform="matrix(1, 0, 0, 1, -5, -5)"><path class="a" d="M333.461,545.259a6.138,6.138,0,0,1-1.87-.294,6.065,6.065,0,0,1-3.57-3.016l-5.9-11.445a6.114,6.114,0,0,1,2.63-8.227l95.393-49.182a6.114,6.114,0,0,1,8.227,2.63l5.9,11.445a6.113,6.113,0,0,1-2.63,8.227l-95.393,49.182A6.068,6.068,0,0,1,333.461,545.259Z" transform="translate(-198.32 -157.11)"/></g><g class="ak" transform="matrix(1, 0, 0, 1, -5, -5)"><path class="b" d="M368.072,504.43a6.141,6.141,0,0,1,.648,1.129l10.08,22.013a6.107,6.107,0,0,1-3.117,8.059l-33.9,11.85a15.254,15.254,0,0,1-18.737-7.714l.392-.191-.392.191a15.241,15.241,0,0,1,6.328-20.025l31.261-17.285a6.118,6.118,0,0,1,7.44,1.974Z" transform="translate(-198.32 -160.87)"/></g><g class="aj" transform="matrix(1, 0, 0, 1, -5, -5)"><path class="c" d="M787.559,397.685H624.242a15.4,15.4,0,0,1-10.1-3.815L546.87,334.54a12.625,12.625,0,0,0-8.366-3.163H480.45V131.146a14.412,14.412,0,0,1,14.4-14.4H773.163a14.412,14.412,0,0,1,14.4,14.4Z" transform="translate(-218.6 -111.75)"/></g><g class="ai" transform="matrix(1, 0, 0, 1, -5, -5)"><circle class="d" cx="30.536" cy="30.536" r="30.536" transform="translate(298.06 36.85)"/></g><g class="ah" transform="matrix(1, 0, 0, 1, -5, -5)"><path class="d" d="M684.086,169.5h-56.71a3.926,3.926,0,1,0,0,7.852h56.71a3.926,3.926,0,1,0,0-7.852Z" transform="translate(-236.83 -118.48)"/></g><g class="ag" transform="matrix(1, 0, 0, 1, -5, -5)"><path class="c" d="M766.413,198H626.626c-1.754,0-3.176,1.762-3.176,3.926s1.422,3.926,3.176,3.926H766.413c1.754,0,3.176-1.762,3.176-3.926S768.166,198,766.413,198Z" transform="translate(-236.83 -122.11)"/></g><g class="af" transform="matrix(1, 0, 0, 1, -5, -5)"><path class="d" d="M744.11,258.25H537.736c-1.675,0-3.036,1.762-3.036,3.926s1.361,3.926,3.036,3.926H744.11c1.675,0,3.036-1.762,3.036-3.926S745.785,258.25,744.11,258.25Z" transform="translate(-225.51 -129.8)"/></g><g class="ae" transform="matrix(1, 0, 0, 1, -5, -5)"><path class="d" d="M744.11,286.25H537.736c-1.675,0-3.036,1.762-3.036,3.926s1.361,3.926,3.036,3.926H744.11c1.675,0,3.036-1.762,3.036-3.926S745.785,286.25,744.11,286.25Z" transform="translate(-225.51 -133.37)"/></g><g class="ad" transform="matrix(1, 0, 0, 1, -5, -5)"><path class="d" d="M744.11,314.25H537.736c-1.675,0-3.036,1.762-3.036,3.926s1.361,3.926,3.036,3.926H744.11c1.675,0,3.036-1.762,3.036-3.926S745.785,314.25,744.11,314.25Z" transform="translate(-225.51 -136.94)"/></g><g class="ac" transform="matrix(1, 0, 0, 1, -5, -5)"><path class="d" d="M744.11,342.25H537.736c-1.675,0-3.036,1.762-3.036,3.926s1.361,3.926,3.036,3.926H744.11c1.675,0,3.036-1.762,3.036-3.926S745.785,342.25,744.11,342.25Z" transform="translate(-225.51 -140.51)"/></g><g class="ab" transform="matrix(1, 0, 0, 1, -5, -5)"><path class="c" d="M942.559,406.484H644.009a15.16,15.16,0,0,1-8.362-2.5l-.2-.129V200.146a14.412,14.412,0,0,1,14.4-14.4H928.163a14.412,14.412,0,0,1,14.4,14.4Z" transform="translate(-238.36 -120.55)"/></g><g class="aa" transform="matrix(1, 0, 0, 1, -5, -5)"><circle class="d" cx="30.536" cy="30.536" r="30.536" transform="translate(433.29 97.05)"/></g><g class="z" transform="matrix(1, 0, 0, 1, -5, -5)"><path class="d" d="M839.087,238.5h-56.71a3.926,3.926,0,0,0,0,7.852h56.71a3.926,3.926,0,1,0,0-7.852Z" transform="translate(-256.6 -127.28)"/></g><g class="y" transform="matrix(1, 0, 0, 1, -5, -5)"><path class="d" d="M921.413,267H781.626c-1.754,0-3.176,1.762-3.176,3.926s1.422,3.926,3.176,3.926H921.413c1.754,0,3.176-1.762,3.176-3.926S923.166,267,921.413,267Z" transform="translate(-256.6 -130.91)"/></g><g class="x" transform="matrix(1, 0, 0, 1, -5, -5)"><path class="d" d="M899.11,327.25H692.736c-1.675,0-3.036,1.762-3.036,3.926s1.361,3.926,3.036,3.926H899.11c1.675,0,3.036-1.762,3.036-3.926S900.785,327.25,899.11,327.25Z" transform="translate(-245.28 -138.6)"/></g><g class="w" transform="matrix(1, 0, 0, 1, -5, -5)"><path class="d" d="M899.11,355.25H692.736c-1.675,0-3.036,1.762-3.036,3.926s1.361,3.926,3.036,3.926H899.11c1.675,0,3.036-1.762,3.036-3.926S900.785,355.25,899.11,355.25Z" transform="translate(-245.28 -142.17)"/></g><g class="v" transform="matrix(1, 0, 0, 1, -5, -5)"><path class="d" d="M899.11,383.25H692.736c-1.675,0-3.036,1.762-3.036,3.926s1.361,3.926,3.036,3.926H899.11c1.675,0,3.036-1.762,3.036-3.926S900.785,383.25,899.11,383.25Z" transform="translate(-245.28 -145.74)"/></g><g class="u" transform="matrix(1, 0, 0, 1, -5, -5)"><path class="d" d="M899.11,411.25H692.736c-1.675,0-3.036,1.762-3.036,3.926s1.361,3.926,3.036,3.926H899.11c1.675,0,3.036-1.762,3.036-3.926S900.785,411.25,899.11,411.25Z" transform="translate(-245.28 -149.31)"/></g><g class="t" transform="matrix(1, 0, 0, 1, -5, -5)"><path class="d" d="M926.425,426.558H619.586a13.039,13.039,0,0,1-8.123-2.827c-.183-.14-.358-.288-.532-.445l-25.974-22.9-41.3-36.426a14.809,14.809,0,0,0-9.806-3.708H458.782a14.853,14.853,0,0,0-14.832,14.832v339.39A14.853,14.853,0,0,0,458.782,729.3H926.425a14.853,14.853,0,0,0,14.832-14.832V441.389a14.853,14.853,0,0,0-14.832-14.832Zm13.087,287.914a13.1,13.1,0,0,1-13.087,13.087H458.782a13.1,13.1,0,0,1-13.087-13.087V375.082a13.1,13.1,0,0,1,13.087-13.087h75.067a13.056,13.056,0,0,1,8.655,3.272l39.82,35.117,27.448,24.211a14.961,14.961,0,0,0,9.815,3.708H926.425a13.1,13.1,0,0,1,13.087,13.087Z" transform="translate(-213.94 -142.8)"/></g><g class="s" transform="matrix(1, 0, 0, 1, -5, -5)"><circle class="a" cx="46.694" cy="46.694" r="46.694" transform="translate(48.39 242.79)"/></g><g class="r" transform="matrix(1, 0, 0, 1, -5, -5)"><path class="a" d="M286.1,765.194H273.219a6.114,6.114,0,0,1-6.107-6.107V651.761a6.114,6.114,0,0,1,6.107-6.107H286.1a6.114,6.114,0,0,1,6.107,6.107V759.087a6.114,6.114,0,0,1-6.107,6.107Z" transform="translate(-191.39 -179.2)"/></g><g class="q" transform="matrix(1, 0, 0, 1, -5, -5)"><path class="a" d="M318.1,765.194H305.219a6.114,6.114,0,0,1-6.107-6.107V651.761a6.114,6.114,0,0,1,6.107-6.107H318.1a6.114,6.114,0,0,1,6.107,6.107V759.087a6.114,6.114,0,0,1-6.107,6.107Z" transform="translate(-195.47 -179.2)"/></g><g class="p" transform="matrix(1, 0, 0, 1, -5, -5)"><path class="b" d="M354.317,610.37c0,38.066-35.807,50.345-73.873,50.345s-63.977-12.279-63.977-50.345,25.624-102.951,63.69-102.951S354.317,572.3,354.317,610.37Z" transform="translate(-184.93 -161.57)"/></g><g class="o" transform="matrix(1, 0, 0, 1, -5, -5)"><path class="b" d="M288.172,458.316l-.049-1.745c3.246-.09,6.108-.294,8.259-1.865a5.364,5.364,0,0,0,2.078-3.951,3.067,3.067,0,0,0-1.006-2.525c-1.427-1.206-3.725-.815-5.4-.048l-1.444.662,2.769-20.233,1.729.237-2.355,17.211a6.159,6.159,0,0,1,5.827.838,4.773,4.773,0,0,1,1.623,3.919,7.1,7.1,0,0,1-2.792,5.3C294.648,458.134,291.058,458.235,288.172,458.316Z" transform="translate(-194.07 -151.52)"/></g><g class="n" transform="matrix(1, 0, 0, 1, -5, -5)"><rect class="b" width="9.398" height="1.745" transform="translate(109.59 278.81)"/></g><g class="m" transform="matrix(1, 0, 0, 1, -5, -5)"><rect class="b" width="9.398" height="1.745" transform="translate(79.93 278.81)"/></g><g class="l" transform="matrix(1, 0, 0, 1, -5, -5)"><path class="d" d="M844.543,689.764H588.037a13.1,13.1,0,0,1-13.087-13.087V535.337a13.1,13.1,0,0,1,13.087-13.087H844.543a13.1,13.1,0,0,1,13.087,13.087v141.34A13.1,13.1,0,0,1,844.543,689.764ZM588.037,523.995A11.355,11.355,0,0,0,576.7,535.337v141.34a11.355,11.355,0,0,0,11.342,11.342H844.543a11.355,11.355,0,0,0,11.342-11.342V535.337a11.355,11.355,0,0,0-11.342-11.342Z" transform="translate(-230.65 -163.46)"/></g><g class="k" transform="matrix(1, 0, 0, 1, -5, -5)"><circle class="d" cx="30.536" cy="30.536" r="30.536" transform="translate(368.3 380.6)"/></g><g class="j" transform="matrix(1, 0, 0, 1, -5, -5)"><path class="d" d="M764.587,563.5h-56.71a3.926,3.926,0,0,0,0,7.852h56.71a3.926,3.926,0,0,0,0-7.852Z" transform="translate(-247.1 -168.72)"/></g><g class="i" transform="matrix(1, 0, 0, 1, -5, -5)"><path class="d" d="M846.913,592H707.126c-1.754,0-3.176,1.762-3.176,3.926s1.422,3.926,3.176,3.926H846.913c1.754,0,3.176-1.762,3.176-3.926S848.666,592,846.913,592Z" transform="translate(-247.1 -172.36)"/></g><g class="h" transform="matrix(1, 0, 0, 1, -5, -5)"><path class="d" d="M824.61,652.25H618.236c-1.675,0-3.036,1.762-3.036,3.926s1.361,3.926,3.036,3.926H824.61c1.675,0,3.036-1.762,3.036-3.926S826.285,652.25,824.61,652.25Z" transform="translate(-235.78 -180.04)"/></g><g class="g" transform="matrix(1, 0, 0, 1, -5, -5)"><path class="d" d="M824.61,680.25H618.236c-1.675,0-3.036,1.762-3.036,3.926s1.361,3.926,3.036,3.926H824.61c1.675,0,3.036-1.762,3.036-3.926S826.285,680.25,824.61,680.25Z" transform="translate(-235.78 -183.61)"/></g><g class="f" transform="matrix(1, 0, 0, 1, -5, -5)"><path class="b" d="M238.87,418.082c3.631-5.466,10.021-7.784,16.323-8.347,7.092-.634,13.946.733,20.87,2.062,7.621,1.462,15.686,2.831,23.365.982a23.034,23.034,0,0,0,15.658-12.649,29.464,29.464,0,0,0,1.716-19.646c-1.8-6.968-6.266-13.1-11.681-17.729-11.051-9.451-26.007-13.7-40.391-13.3a68.288,68.288,0,0,0-39.588,13.92,64.3,64.3,0,0,0-22.811,35.747,67.031,67.031,0,0,0,3.246,42.161c3.148,7.3,7.7,13.885,11.213,21,3.271,6.628,5.79,14.333,3.755,21.725-1.786,6.487-7.028,12.249-13.61,14.01a14.292,14.292,0,0,1-15.893-6.488c-3.29-5.188-3.369-11.983,1.571-16.172a12.126,12.126,0,0,1,17.493,1.746,12.482,12.482,0,0,1,2.5,9.152c-.243,1.648,2.278,2.359,2.524.7a14.765,14.765,0,0,0-27.529-9.534c-2.979,5.6-1.372,12.357,2.41,17.145a16.711,16.711,0,0,0,17.038,6.127c6.884-1.59,12.515-7.061,15.163-13.49,2.948-7.158,1.6-15.145-1.277-22.09-3.107-7.508-7.72-14.241-11.369-21.476a61.165,61.165,0,0,1-6.206-20.9,66.125,66.125,0,0,1,9.431-41.885,61.458,61.458,0,0,1,33.85-25.726,64.229,64.229,0,0,1,42.5,1.124c13.3,5.24,26.142,16.66,25.988,32-.066,6.552-2.5,13.233-7.517,17.6-6,5.223-14.348,5.669-21.888,4.854-7.587-.82-14.955-3.036-22.575-3.6-6.628-.492-13.778.019-19.7,3.312a19.693,19.693,0,0,0-6.841,6.346c-.935,1.407,1.331,2.719,2.26,1.321Z" transform="translate(-181.05 -141.42)"/></g><path class="a" d="M228.419,661.379a6.1,6.1,0,0,1-.922-.07l-12.73-1.937a6.114,6.114,0,0,1-5.119-6.957l16.15-106.1a6.114,6.114,0,0,1,6.957-5.119l12.73,1.938a6.113,6.113,0,0,1,5.119,6.956l-16.15,106.1a6.118,6.118,0,0,1-6.034,5.188Z" transform="translate(-189.051 -170.871)"/><path class="b" d="M244.246,587.681a6.136,6.136,0,0,1-1.295-.139l-23.735-4.776a6.107,6.107,0,0,1-4.69-7.258l10.33-34.4a15.254,15.254,0,0,1,17.251-10.63l-.076.429.076-.429a15.241,15.241,0,0,1,12.486,16.886l-4.379,35.453a6.118,6.118,0,0,1-5.968,4.861Z" transform="translate(-189.664 -169.484)"/><path class="e" d="M357.757,782.995H220.779a.872.872,0,1,1,0-1.745H357.757a.872.872,0,1,1,0,1.745Z" transform="translate(-190.368 -201.495)"/></g></svg>